<svg width="290" height="227" viewBox="0 0 290 227" fill="none" xmlns="http://www.w3.org/2000/svg">
<path d="M246.767 111.057C258.467 97.4374 264.167 80.0674 262.807 62.1574C261.447 44.2474 253.197 27.9374 239.577 16.2374C225.957 4.53744 208.597 -1.16256 190.687 0.197445C175.347 1.35744 161.197 7.58744 150.097 17.9074C154.017 23.3774 157.257 29.2874 159.777 35.5074C168.097 26.0674 179.557 20.3374 192.137 19.3874C204.917 18.4174 217.317 22.4874 227.037 30.8374C236.757 39.1874 242.647 50.8274 243.617 63.6174C244.587 76.3974 240.517 88.7974 232.167 98.5174C223.817 108.237 212.177 114.127 199.387 115.097C172.977 117.097 149.897 97.2574 147.897 70.8674L147.277 62.7174C145.917 44.8074 137.667 28.4974 124.047 16.7974C110.437 5.09744 93.0574 -0.602555 75.1574 0.757445C57.2474 2.11744 40.9374 10.3674 29.2374 23.9874C17.5374 37.6074 11.8374 54.9774 13.1974 72.8874C14.3274 87.7574 20.2174 101.507 29.9674 112.447L26.4874 143.447L57.5774 131.137C64.7574 133.707 72.3574 135.047 80.1274 135.047C81.8474 135.047 83.5774 134.977 85.3174 134.847C100.667 133.687 114.837 127.437 125.947 117.097C122.067 111.687 118.797 105.797 116.237 99.5174C107.917 108.977 96.4474 114.707 83.8574 115.657C71.0774 116.627 58.6774 112.557 48.9574 104.207C39.2374 95.8574 33.3474 84.2174 32.3774 71.4274C31.4074 58.6474 35.4774 46.2474 43.8274 36.5274C52.1774 26.8074 63.8174 20.9174 76.6074 19.9474C89.3974 18.9774 101.787 23.0474 111.507 31.3974C121.227 39.7474 127.117 51.3874 128.087 64.1774L128.707 72.3274C131.377 107.577 160.917 134.487 195.707 134.487C197.407 134.487 199.117 134.427 200.837 134.297C206.647 133.857 212.277 132.677 217.647 130.837L249.497 143.447L245.967 111.927C246.227 111.637 246.497 111.357 246.757 111.057H246.767Z" fill="url(#paint0_linear_719_803)"/>
<path d="M5.43981 211.578V171.068H23.1481C27.5463 171.068 31.4043 171.917 34.7222 173.615C38.0401 175.312 40.625 177.666 42.4768 180.675C44.3287 183.684 45.2546 187.234 45.2546 191.323C45.2546 195.374 44.3287 198.923 42.4768 201.971C40.625 204.98 38.0401 207.334 34.7222 209.031C31.4043 210.729 27.5463 211.578 23.1481 211.578H5.43981ZM12.963 205.212H22.8009C25.8488 205.212 28.4722 204.633 30.6713 203.476C32.9089 202.318 34.6258 200.698 35.8217 198.615C37.0563 196.531 37.6736 194.101 37.6736 191.323C37.6736 188.507 37.0563 186.076 35.8217 184.031C34.6258 181.948 32.9089 180.328 30.6713 179.17C28.4722 178.013 25.8488 177.434 22.8009 177.434H12.963V205.212ZM65.6349 211.983C63.0115 211.983 60.6967 211.5 58.6905 210.536C56.6843 209.533 55.1218 208.028 54.003 206.022C52.8842 203.977 52.3247 201.412 52.3247 198.325V180.675H59.5585V197.342C59.5585 200.119 60.1758 202.203 61.4104 203.592C62.6835 204.942 64.4775 205.617 66.7923 205.617C68.4899 205.617 69.9559 205.27 71.1905 204.575C72.4636 203.881 73.4474 202.839 74.1419 201.45C74.8749 200.061 75.2414 198.345 75.2414 196.3V180.675H82.4752V211.578H75.5886V203.244L76.8039 205.791C75.7622 207.797 74.2383 209.34 72.2321 210.42C70.226 211.462 68.0269 211.983 65.6349 211.983ZM110.986 211.578V205.328L110.581 203.997V193.059C110.581 190.937 109.944 189.298 108.671 188.14C107.398 186.944 105.469 186.346 102.884 186.346C101.148 186.346 99.4311 186.616 97.7335 187.156C96.0746 187.696 94.6664 188.449 93.509 189.413L90.6733 184.147C92.3323 182.874 94.2999 181.929 96.5761 181.311C98.8909 180.656 101.283 180.328 103.752 180.328C108.227 180.328 111.68 181.408 114.111 183.568C116.58 185.69 117.815 188.989 117.815 193.464V211.578H110.986ZM101.264 211.983C98.9488 211.983 96.9233 211.597 95.1872 210.825C93.4511 210.015 92.1008 208.916 91.1363 207.527C90.2104 206.099 89.7474 204.498 89.7474 202.723C89.7474 200.987 90.1525 199.425 90.9627 198.036C91.8115 196.647 93.1811 195.548 95.0715 194.737C96.9619 193.927 99.4696 193.522 102.595 193.522H111.565V198.325H103.115C100.646 198.325 98.9874 198.73 98.1386 199.541C97.2899 200.312 96.8655 201.277 96.8655 202.434C96.8655 203.746 97.3863 204.788 98.428 205.559C99.4696 206.331 100.916 206.717 102.768 206.717C104.543 206.717 106.125 206.311 107.514 205.501C108.941 204.691 109.963 203.495 110.581 201.913L111.796 206.254C111.102 208.067 109.848 209.475 108.034 210.478C106.26 211.481 104.003 211.983 101.264 211.983ZM127.098 211.578V168.638H134.332V211.578H127.098Z" fill="#9C27B0"/>
<path d="M164.867 212.195C161.577 212.195 158.513 211.66 155.676 210.591C152.879 209.48 150.432 207.938 148.334 205.964C146.278 203.949 144.674 201.584 143.523 198.869C142.371 196.155 141.795 193.194 141.795 189.986C141.795 186.778 142.371 183.817 143.523 181.103C144.674 178.388 146.299 176.044 148.396 174.07C150.494 172.055 152.941 170.513 155.737 169.443C158.534 168.333 161.598 167.778 164.929 167.778C168.466 167.778 171.694 168.395 174.614 169.628C177.534 170.821 180.002 172.61 182.017 174.995L176.835 179.869C175.272 178.183 173.525 176.928 171.592 176.106C169.659 175.242 167.561 174.81 165.299 174.81C163.037 174.81 160.96 175.181 159.069 175.921C157.218 176.661 155.593 177.71 154.195 179.067C152.838 180.424 151.769 182.028 150.987 183.879C150.247 185.73 149.877 187.765 149.877 189.986C149.877 192.207 150.247 194.243 150.987 196.093C151.769 197.944 152.838 199.548 154.195 200.905C155.593 202.262 157.218 203.311 159.069 204.051C160.96 204.792 163.037 205.162 165.299 205.162C167.561 205.162 169.659 204.751 171.592 203.928C173.525 203.064 175.272 201.769 176.835 200.042L182.017 204.977C180.002 207.321 177.534 209.11 174.614 210.344C171.694 211.578 168.445 212.195 164.867 212.195ZM207.653 178.265C210.285 178.265 212.63 178.779 214.686 179.807C216.783 180.835 218.428 182.419 219.621 184.557C220.814 186.655 221.41 189.369 221.41 192.7V211.578H213.699V193.688C213.699 190.768 213 188.588 211.601 187.148C210.244 185.709 208.332 184.989 205.864 184.989C204.055 184.989 202.451 185.359 201.052 186.1C199.654 186.84 198.564 187.95 197.783 189.431C197.043 190.87 196.672 192.7 196.672 194.921V211.578H188.961V165.804H196.672V187.519L195.007 184.804C196.158 182.707 197.824 181.103 200.004 179.992C202.225 178.841 204.774 178.265 207.653 178.265ZM251.488 211.578V204.915L251.057 203.496V191.837C251.057 189.575 250.378 187.827 249.021 186.593C247.664 185.318 245.607 184.681 242.852 184.681C241.001 184.681 239.171 184.969 237.361 185.544C235.593 186.12 234.092 186.922 232.858 187.95L229.835 182.337C231.604 180.979 233.701 179.972 236.128 179.314C238.595 178.615 241.145 178.265 243.777 178.265C248.548 178.265 252.229 179.417 254.82 181.72C257.452 183.982 258.768 187.498 258.768 192.269V211.578H251.488ZM241.124 212.009C238.657 212.009 236.498 211.598 234.647 210.776C232.796 209.912 231.357 208.74 230.329 207.259C229.342 205.738 228.848 204.031 228.848 202.139C228.848 200.288 229.28 198.623 230.144 197.142C231.048 195.662 232.508 194.49 234.524 193.626C236.539 192.762 239.212 192.33 242.543 192.33H252.105V197.451H243.099C240.466 197.451 238.698 197.882 237.793 198.746C236.888 199.569 236.436 200.597 236.436 201.831C236.436 203.229 236.991 204.339 238.102 205.162C239.212 205.984 240.754 206.396 242.728 206.396C244.62 206.396 246.306 205.964 247.787 205.1C249.309 204.237 250.399 202.962 251.057 201.275L252.352 205.902C251.612 207.835 250.275 209.336 248.342 210.406C246.45 211.475 244.044 212.009 241.124 212.009ZM281.064 212.009C277.445 212.009 274.648 211.084 272.674 209.233C270.7 207.342 269.713 204.566 269.713 200.905V171.356H277.424V200.72C277.424 202.283 277.815 203.496 278.596 204.36C279.419 205.224 280.55 205.655 281.989 205.655C283.717 205.655 285.156 205.203 286.308 204.298L288.467 209.789C287.562 210.529 286.451 211.084 285.135 211.454C283.819 211.824 282.462 212.009 281.064 212.009ZM264.284 185.051V178.882H286.246V185.051H264.284Z" fill="#F20149"/>
<defs>
<linearGradient id="paint0_linear_719_803" x1="9.39744" y1="71.7274" x2="259.407" y2="71.7274" gradientUnits="userSpaceOnUse">
<stop stop-color="#9C27B0"/>
<stop offset="0.19" stop-color="#A722A2"/>
<stop offset="0.53" stop-color="#C4147E"/>
<stop offset="1" stop-color="#F40046"/>
</linearGradient>
</defs>
</svg>
